<svg width="40" height="40" viewBox="0 0 40 40" fill="none" xmlns="http://www.w3.org/2000/svg">
<path d="M19.2614 27.6866L21.1247 25.514C21.4391 25.5939 21.9839 25.6994 22.6703 25.6994C22.8184 25.6994 22.9732 25.6945 23.1335 25.6834C24.3544 25.5984 26.1571 25.1226 27.8112 23.3379C29.4653 21.5533 29.9064 19.6084 29.9851 18.2911C30.0707 16.8593 29.7605 15.8463 29.7473 15.8039C29.6947 15.6355 29.5667 15.51 29.4106 15.4671L29.4055 15.4655C28.8947 15.3048 28.2798 15.2122 27.674 15.2047C27.6721 15.2047 27.6703 15.2047 27.6684 15.2047C25.1632 15.2047 23.815 16.3868 23.815 16.3868L23.8249 16.3832L25.6365 15.8955L27.674 16.1322C28.2011 16.1387 28.9001 16.3943 28.9001 16.3943C28.9001 16.3943 29.0793 17.4253 29.0239 18.2676C28.916 19.9078 28.2795 21.3672 27.132 22.6052C25.9845 23.8431 24.6319 24.5299 23.1118 24.6462C22.668 24.6802 22.2732 24.6581 21.9551 24.6181L25.4768 20.8185C25.4768 20.8185 25.8848 20.4978 25.6365 20.0018C25.3881 19.5058 25.0268 19.8259 25.0268 19.8259L21.276 23.8852C21.1454 22.659 21.2309 20.3614 23.1416 18.2999C23.5162 17.8958 23.9189 17.5455 24.3386 17.2589C26.0918 15.8955 27.674 16.1322 27.674 16.1322C27.674 16.1322 26.2952 14.6959 23.8249 16.3832C23.3455 16.7107 22.887 17.109 22.4624 17.5671C20.8083 19.3518 20.3673 21.2966 20.2886 22.6139C20.2304 23.5886 20.3555 24.3687 20.4456 24.7812L19.2684 26.0511V16.6461C19.3238 16.6475 19.3824 16.6483 19.4448 16.6483C20.3862 16.6483 22.071 16.4646 23.1847 15.2852C24.6817 13.7001 24.481 10.9324 24.4402 10.5069C24.4338 10.3842 24.3872 10.2635 24.3002 10.1697C24.2147 10.0774 24.1048 10.0273 23.9929 10.0193C23.7641 9.9977 21.1735 9.79504 19.6439 11.4139C18.2665 12.8725 18.2812 15.2779 18.3194 15.9848C18.312 16.0209 18.3079 16.0583 18.3079 16.0968V18.0768C18.0235 17.5686 17.6602 17.0544 17.196 16.5535C15.6201 14.8534 13.9027 14.4001 12.7393 14.3191C11.4746 14.2311 10.5789 14.5505 10.5414 14.5641C10.3855 14.6207 10.2692 14.7585 10.2294 14.9268L10.2281 14.9315C10.0486 15.5954 9.29401 19.0598 12.0835 22.0695C13.6593 23.7696 15.3767 24.2229 16.5401 24.3038C16.6927 24.3144 16.84 24.3191 16.9811 24.3191C17.5386 24.3191 17.9984 24.246 18.3079 24.1772V30H19.2614V27.6866ZM20.3166 12.1536C21.2504 11.1653 22.7802 11.0372 23.5079 11.037C23.5278 11.8427 23.4481 13.5543 22.5119 14.5456C21.8091 15.2898 20.7519 15.5259 19.9565 15.5894L21.4031 14.0287C21.4031 14.0287 22.2114 13.3492 21.8393 12.9478C21.4673 12.5464 20.7238 13.2959 20.7238 13.2959L23.5079 11.037C23.5079 11.037 23.5079 11.037 20.7238 13.2959L19.3016 14.8304C19.3794 13.9883 19.6221 12.8889 20.3166 12.1536ZM18.3078 22.2452C18.3022 22.3393 18.2949 22.4288 18.2865 22.5134L15.4836 19.4892C15.2961 19.2869 14.992 19.2869 14.8044 19.4892C14.6169 19.6916 14.6169 20.0197 14.8044 20.2221L17.6075 23.2464C16.5222 23.3705 14.5425 23.2568 12.7627 21.3366C10.611 19.0151 10.8955 16.4089 11.0893 15.4786C11.4012 15.4035 11.9902 15.3001 12.7174 15.3562C14.1538 15.4667 15.4321 16.1162 16.5167 17.2863C17.6012 18.4565 18.2031 19.8356 18.3055 21.3853C18.3065 21.3994 18.3069 21.413 18.3078 21.427V22.2452Z" fill="white"/>
<path d="M39.5 20C39.5 30.7696 30.7696 39.5 20 39.5C9.23045 39.5 0.5 30.7696 0.5 20C0.5 9.23045 9.23045 0.5 20 0.5C30.7696 0.5 39.5 9.23045 39.5 20Z" stroke="white"/>
</svg>
