<svg width="40" height="40" viewBox="0 0 40 40" fill="none" xmlns="http://www.w3.org/2000/svg">
<mask id="mask0" mask-type="alpha" maskUnits="userSpaceOnUse" x="8" y="8" width="24" height="24">
<rect x="8" y="8" width="24" height="24" fill="#C4C4C4"/>
</mask>
<g mask="url(#mask0)">
<path fill-rule="evenodd" clip-rule="evenodd" d="M29.125 16.25C29.125 16.0807 29.0664 15.9375 28.9492 15.8203L25.4531 12.0703C25.388 12.0052 25.3164 11.9564 25.2383 11.9238C25.1602 11.8913 25.0755 11.875 24.9844 11.875H19.7695L19.75 10.5859C19.75 10.4297 19.6882 10.293 19.5645 10.1758C19.4408 10.0586 19.2943 10 19.125 10C18.9557 10 18.8158 10.0586 18.7051 10.1758C18.5944 10.293 18.5391 10.4297 18.5391 10.5859L18.5195 11.875H11.625C11.4557 11.875 11.3092 11.9368 11.1855 12.0605C11.0618 12.1842 11 12.3307 11 12.5V20C11 20.1693 11.0618 20.3158 11.1855 20.4395C11.3092 20.5632 11.4557 20.625 11.625 20.625H18.5195V29.4141C18.5195 29.5703 18.5814 29.707 18.7051 29.8242C18.8288 29.9414 18.9753 30 19.1445 30C19.3138 30 19.4603 29.9414 19.584 29.8242C19.7077 29.707 19.7695 29.5703 19.7695 29.4141V20.625H24.9844C25.0755 20.625 25.1602 20.6087 25.2383 20.5762C25.3164 20.5436 25.388 20.4948 25.4531 20.4297L28.9492 16.6797C29.0664 16.5625 29.125 16.4193 29.125 16.25ZM27.6406 16.25L24.7109 19.375H12.25V13.125H24.7109L27.6406 16.25Z" fill="white"/>
</g>
<path d="M39.5 20C39.5 30.7696 30.7696 39.5 20 39.5C9.23045 39.5 0.5 30.7696 0.5 20C0.5 9.23045 9.23045 0.5 20 0.5C30.7696 0.5 39.5 9.23045 39.5 20Z" stroke="white"/>
</svg>
