<svg width="40" height="40" viewBox="0 0 40 40" fill="none" xmlns="http://www.w3.org/2000/svg">
<path d="M30 29.2728V15.0911H25.7895V29.2728H24.7368V18.0001H20.5263V29.2728H19.4737V20.9092H15.2632V29.2728H14.2105V24.182H10V29.2728C10 29.4739 10 30.0001 10 30.0001H14.2105H15.2632H19.4737H20.5263H24.7368H25.7895H30C30 30.0001 30 29.4739 30 29.2728ZM10.7018 29.2728V24.9092H13.5088V29.2728H10.7018ZM15.9649 29.2728V21.6365H18.7719V29.2728H15.9649ZM21.2281 29.2728V18.7274H24.0351V29.2728H21.2281ZM26.4912 29.2728V15.8183H29.2982V29.2728H26.4912Z" fill="white" stroke="white" stroke-width="0.15"/>
<path d="M12.116 19.2109C12.1753 19.2109 12.236 19.1953 12.291 19.1622L25.017 11.5477L24.2205 13.3622C24.1402 13.5451 24.2181 13.7608 24.3946 13.8437C24.4416 13.8662 24.491 13.8764 24.5398 13.8764C24.6732 13.8764 24.8005 13.7971 24.8595 13.6633L26.1093 10.8161C26.1132 10.807 26.1125 10.7971 26.1156 10.7877C26.1223 10.7684 26.1275 10.7499 26.131 10.7295C26.1328 10.7193 26.1384 10.711 26.1391 10.7004C26.1395 10.6961 26.1377 10.6924 26.1381 10.6881C26.1388 10.6742 26.1374 10.6615 26.1367 10.6477C26.1356 10.6277 26.1325 10.6088 26.1282 10.5888C26.1254 10.575 26.1247 10.5608 26.1202 10.5473C26.116 10.5342 26.1086 10.5233 26.103 10.5106C26.0984 10.5022 26.0984 10.4924 26.0935 10.4837C26.0886 10.475 26.0802 10.4699 26.0746 10.4615C26.0672 10.4502 26.0616 10.4382 26.0528 10.4281C26.0437 10.4171 26.0321 10.4095 26.0216 10.3997C26.0072 10.3862 25.9928 10.3739 25.9767 10.363C25.9658 10.3557 25.956 10.3477 25.944 10.3415C25.9402 10.3397 25.9381 10.3361 25.9342 10.3342C25.9254 10.3302 25.916 10.331 25.9072 10.3277C25.8879 10.3204 25.8689 10.3153 25.8489 10.3117C25.8398 10.3099 25.8325 10.3044 25.823 10.3037L22.8188 10.0019C22.624 9.98151 22.4542 10.1292 22.4356 10.3284C22.4167 10.5284 22.5581 10.7062 22.7507 10.7255L24.6651 10.9179L11.9402 18.5324C11.7721 18.6328 11.7149 18.8553 11.8117 19.0291C11.8767 19.1459 11.9946 19.2109 12.116 19.2109Z" fill="white" stroke="white" stroke-width="0.15"/>
<path d="M39.5 20C39.5 30.7696 30.7696 39.5 20 39.5C9.23045 39.5 0.5 30.7696 0.5 20C0.5 9.23045 9.23045 0.5 20 0.5C30.7696 0.5 39.5 9.23045 39.5 20Z" stroke="white"/>
</svg>
