<svg width="42" height="42" viewBox="0 0 42 42" fill="none" xmlns="http://www.w3.org/2000/svg">
<path fill-rule="evenodd" clip-rule="evenodd" d="M21 41C32.0457 41 41 32.0457 41 21C41 9.9543 32.0457 1 21 1C9.9543 1 1 9.9543 1 21C1 32.0457 9.9543 41 21 41Z" stroke="#F39000"/>
<mask id="mask0" mask-type="alpha" maskUnits="userSpaceOnUse" x="9" y="9" width="24" height="24">
<rect x="9" y="9" width="24" height="24" fill="#C4C4C4"/>
</mask>
<g mask="url(#mask0)">
<path fill-rule="evenodd" clip-rule="evenodd" d="M29.75 15.0859C30.0885 15.0859 30.3815 15.2096 30.6289 15.457C30.8763 15.7044 31 15.9974 31 16.3359V29.4609C31 29.7995 30.8763 30.0924 30.6289 30.3398C30.3815 30.5872 30.0885 30.7109 29.75 30.7109H12.25C11.9115 30.7109 11.6185 30.5872 11.3711 30.3398C11.1237 30.0924 11 29.7995 11 29.4609V16.3359C11 15.9974 11.1237 15.7044 11.3711 15.457C11.6185 15.2096 11.9115 15.0859 12.25 15.0859H17.25V13.875C17.25 13.3672 17.4323 12.9277 17.7969 12.5566C18.1615 12.1855 18.6042 12 19.125 12H22.875C23.3958 12 23.8385 12.1855 24.2031 12.5566C24.5677 12.9277 24.75 13.3672 24.75 13.875V15.0859H29.75ZM18.5 13.875V15.0859H23.5V13.875C23.5 13.7057 23.4414 13.5592 23.3242 13.4355C23.207 13.3118 23.0573 13.25 22.875 13.25H19.125C18.9557 13.25 18.8092 13.3118 18.6855 13.4355C18.5618 13.5592 18.5 13.7057 18.5 13.875ZM12.25 20.7305V16.3359H29.75V20.7305H22.875V20.0859C22.875 19.7474 22.7513 19.4544 22.5039 19.207C22.2565 18.9596 21.9635 18.8359 21.625 18.8359H20.375C20.0234 18.8359 19.7272 18.9596 19.4863 19.207C19.2454 19.4544 19.125 19.7474 19.125 20.0859V20.7305H12.25ZM21.625 23.2305V20.0859H20.375V23.2305H21.625ZM29.75 29.4609H12.25V21.9805H19.125V23.2305C19.125 23.582 19.2454 23.8783 19.4863 24.1191C19.7272 24.36 20.0234 24.4805 20.375 24.4805H21.625C21.9635 24.4805 22.2565 24.36 22.5039 24.1191C22.7513 23.8783 22.875 23.582 22.875 23.2305V21.9805H29.75V29.4609Z" fill="#F39000"/>
</g>
</svg>
