<svg width="40" height="40" viewBox="0 0 40 40" fill="none" xmlns="http://www.w3.org/2000/svg">
<path d="M39.5 20C39.5 30.7696 30.7696 39.5 20 39.5C9.23045 39.5 0.5 30.7696 0.5 20C0.5 9.23045 9.23045 0.5 20 0.5C30.7696 0.5 39.5 9.23045 39.5 20Z" stroke="white"/>
<mask id="mask0" mask-type="alpha" maskUnits="userSpaceOnUse" x="8" y="8" width="24" height="24">
<rect x="8" y="8" width="24" height="24" fill="#C4C4C4"/>
</mask>
<g mask="url(#mask0)">
<path fill-rule="evenodd" clip-rule="evenodd" d="M28.5938 10.05C28.9583 9.94583 29.2839 10.0044 29.5703 10.2258C29.8568 10.4471 30 10.7401 30 11.1047V26.3C30 26.6125 29.8958 26.9022 29.6875 27.1691C29.4792 27.4361 29.2253 27.6086 28.9258 27.6867L20.6641 29.9328C20.5339 29.9719 20.4004 29.9979 20.2637 30.0109C20.127 30.024 20.0065 30.0305 19.9023 30.0305C19.7591 30.0305 19.6191 30.0207 19.4824 30.0012C19.3457 29.9816 19.2253 29.9589 19.1211 29.9328L11.0742 27.7063C10.7747 27.6151 10.5208 27.4361 10.3125 27.1691C10.1042 26.9022 10 26.6125 10 26.3V11.1047C10 10.7401 10.1432 10.4471 10.4297 10.2258C10.7161 10.0044 11.0417 9.94583 11.4062 10.05L19.4531 12.2766C19.5573 12.3026 19.7038 12.3156 19.8926 12.3156C20.0814 12.3156 20.2279 12.3026 20.332 12.2766L28.5938 10.05ZM19.375 28.7023V13.5266C19.3359 13.5266 19.2936 13.5201 19.248 13.507C19.2025 13.494 19.1602 13.4875 19.1211 13.4875L11.25 11.3V26.3C11.25 26.3391 11.2663 26.3781 11.2988 26.4172C11.3314 26.4563 11.3607 26.4823 11.3867 26.4953L19.375 28.7023ZM28.75 11.3V26.3C28.75 26.3391 28.7305 26.3781 28.6914 26.4172C28.6523 26.4563 28.6198 26.4823 28.5938 26.4953L20.625 28.6438V13.4875H20.6641L28.75 11.3ZM22.5391 17.1594C22.4089 17.1594 22.2852 17.1203 22.168 17.0422C22.0508 16.9641 21.9727 16.8534 21.9336 16.7102C21.8945 16.5409 21.9173 16.3814 22.002 16.2316C22.0866 16.0819 22.207 15.981 22.3633 15.9289L26.7383 14.6984C26.9076 14.6594 27.0671 14.6822 27.2168 14.7668C27.3665 14.8514 27.4674 14.9784 27.5195 15.1477C27.5586 15.3039 27.5358 15.4569 27.4512 15.6066C27.3665 15.7564 27.2461 15.8573 27.0898 15.9094L22.7148 17.1398C22.6888 17.1529 22.6595 17.1594 22.627 17.1594H22.5391ZM22.168 20.7922C22.2852 20.8703 22.4089 20.9094 22.5391 20.9094H22.627C22.6595 20.9094 22.6888 20.9029 22.7148 20.8898L27.0898 19.6594C27.2461 19.6073 27.3665 19.5064 27.4512 19.3566C27.5358 19.2069 27.5586 19.0539 27.5195 18.8977C27.4674 18.7284 27.3665 18.6014 27.2168 18.5168C27.0671 18.4322 26.9076 18.4094 26.7383 18.4484L22.3633 19.6789C22.207 19.731 22.0866 19.8319 22.002 19.9816C21.9173 20.1314 21.8945 20.2909 21.9336 20.4602C21.9727 20.6034 22.0508 20.7141 22.168 20.7922ZM22.5391 24.6594C22.4089 24.6594 22.2852 24.6203 22.168 24.5422C22.0508 24.4641 21.9727 24.3534 21.9336 24.2102C21.8945 24.0409 21.9173 23.8814 22.002 23.7316C22.0866 23.5819 22.207 23.481 22.3633 23.4289L26.7383 22.1984C26.9076 22.1594 27.0671 22.1822 27.2168 22.2668C27.3665 22.3514 27.4674 22.4784 27.5195 22.6477C27.5586 22.8039 27.5358 22.9569 27.4512 23.1066C27.3665 23.2564 27.2461 23.3573 27.0898 23.4094L22.7148 24.6398C22.6888 24.6529 22.6595 24.6594 22.627 24.6594H22.5391ZM18.0762 16.2316C17.9915 16.0819 17.8711 15.981 17.7148 15.9289L13.3398 14.6984C13.1706 14.6594 13.0111 14.6822 12.8613 14.7668C12.7116 14.8514 12.6107 14.9784 12.5586 15.1477C12.5195 15.3039 12.5423 15.4569 12.627 15.6066C12.7116 15.7564 12.832 15.8573 12.9883 15.9094L17.3633 17.1398C17.3893 17.1529 17.4186 17.1594 17.4512 17.1594H17.5391C17.6693 17.1594 17.793 17.1203 17.9102 17.0422C18.0273 16.9641 18.1055 16.8534 18.1445 16.7102C18.1836 16.5409 18.1608 16.3814 18.0762 16.2316ZM17.7148 19.6789C17.8711 19.731 17.9915 19.8319 18.0762 19.9816C18.1608 20.1314 18.1836 20.2909 18.1445 20.4602C18.1055 20.6034 18.0273 20.7141 17.9102 20.7922C17.793 20.8703 17.6693 20.9094 17.5391 20.9094H17.4512C17.4186 20.9094 17.3893 20.9029 17.3633 20.8898L12.9883 19.6594C12.832 19.6073 12.7116 19.5064 12.627 19.3566C12.5423 19.2069 12.5195 19.0539 12.5586 18.8977C12.6107 18.7284 12.7116 18.6014 12.8613 18.5168C13.0111 18.4322 13.1706 18.4094 13.3398 18.4484L17.7148 19.6789ZM18.0762 23.7316C17.9915 23.5819 17.8711 23.481 17.7148 23.4289L13.3398 22.1984C13.1706 22.1594 13.0111 22.1822 12.8613 22.2668C12.7116 22.3514 12.6107 22.4784 12.5586 22.6477C12.5195 22.8039 12.5423 22.9569 12.627 23.1066C12.7116 23.2564 12.832 23.3573 12.9883 23.4094L17.3633 24.6398C17.3893 24.6529 17.4186 24.6594 17.4512 24.6594H17.5391C17.6693 24.6594 17.793 24.6203 17.9102 24.5422C18.0273 24.4641 18.1055 24.3534 18.1445 24.2102C18.1836 24.0409 18.1608 23.8814 18.0762 23.7316Z" fill="white"/>
</g>
</svg>
