<svg width="40" height="40" viewBox="0 0 40 40" fill="none" xmlns="http://www.w3.org/2000/svg">
<path d="M21.3692 19.4847C21.4282 19.6 21.5456 19.6666 21.6669 19.6666C21.7175 19.6666 21.7695 19.655 21.8179 19.6303C21.8375 19.6203 23.7996 18.6236 24.7672 18.318C24.9426 18.2623 25.0399 18.075 24.9842 17.8997C24.9289 17.7243 24.7429 17.6266 24.5659 17.682C23.5466 18.0043 21.5979 18.9943 21.5152 19.0363C21.3512 19.1197 21.2859 19.3204 21.3692 19.4847Z" fill="white"/>
<path d="M21.6669 15.6666C21.7175 15.6666 21.7695 15.655 21.8179 15.6303C21.8375 15.6203 23.7996 14.6236 24.7672 14.318C24.9426 14.2623 25.0399 14.075 24.9842 13.8997C24.9289 13.7243 24.7429 13.6266 24.5659 13.682C23.5466 14.0043 21.5979 14.9943 21.5152 15.0363C21.3512 15.1197 21.2859 15.3203 21.3692 15.4847C21.4282 15.6 21.5455 15.6666 21.6669 15.6666Z" fill="white"/>
<path d="M28.6666 14.4531V15.0001C28.6666 15.0001 28.6666 15.0001 29.3333 15.3334V28.3333C29.3333 28.8846 28.8846 29.3333 28.3333 29.3333H20.3333V28.5663C20.8194 28.3963 22.0853 28 23.3333 28C26.237 28 28.2087 28.643 28.2283 28.6496C28.3286 28.6829 28.4407 28.6663 28.5283 28.6036C28.6153 28.541 28.6666 28.4403 28.6666 28.3333V15.0001V14.4531V13.6668C28.6666 13.5105 28.5583 13.3751 28.4056 13.3415C28.4056 13.3415 28.1443 13.2831 27.6976 13.2011C27.5173 13.1678 26.6666 13.0468 26.6666 13.3886C26.6666 13.7304 27.3959 13.8234 27.577 13.8568C27.7473 13.8881 27.89 13.9157 28 13.9378V27.8903C27.2446 27.6923 25.5673 27.3333 23.3333 27.3333C21.881 27.3333 20.4543 27.8103 20.0129 27.972C19.6206 27.7987 18.4346 27.3333 16.9999 27.3333C14.7039 27.3333 12.8126 27.712 12 27.9043V13.9248C12.6656 13.7611 14.6316 13.3334 16.9999 13.3334C18.2153 13.3334 19.2576 13.7118 19.6666 13.8828V27.8589L20.1716 28.191V28C20.2046 27.9804 23.5073 26.0077 26.4386 25.0307C26.5749 24.985 26.6666 24.8581 26.6666 24.7144V13.7304L27.577 13.8568L27.6941 13.2006L26.6666 13.0468V10.3335C26.6666 10.2241 26.6129 10.1218 26.5229 10.0595C26.4336 9.99715 26.319 9.98282 26.2159 10.0212C23.549 11.0215 20.8503 12.7008 20.8233 12.7175C19.5932 13.4765 19.5897 13.4765 20.2538 13.4961C20.1952 13.8086 19.9608 13.8828 21.1766 13.2828C21.2013 13.2672 23.549 11.8065 25.9999 10.8209V24.4758C23.7246 25.2664 21.3489 26.5574 20.3333 27.1354V13.6668C20.3333 13.5405 20.2619 13.4251 20.1489 13.3685C20.0916 13.3402 18.7256 12.6668 16.9999 12.6668C13.988 12.6668 11.6723 13.3185 11.575 13.3465C11.5256 13.3605 11.4815 13.3853 11.4449 13.4179C11.3756 13.4797 11.3333 13.5695 11.3333 13.6668V28.3333C11.3333 28.4377 11.3826 28.5363 11.4656 28.5994C11.5243 28.6437 11.595 28.6667 11.6666 28.6667C11.6973 28.6667 11.728 28.6624 11.758 28.6537C11.781 28.6474 14.086 28 16.9999 28C18.2186 28 19.2599 28.3794 19.6666 28.5497V29.3333H11.6666C11.1153 29.3333 10.6666 28.8847 10.6666 28.3333V15.3335L11.1208 14.6784L11.575 14.0234V13.6849L11.4154 13.457L10.6935 14.414L10 15.3335V28.3333C10 29.2523 10.7477 30 11.6667 30H28.3333C29.2523 30 30 29.2524 30 28.3333V15.1367L28.6666 14.4531Z" fill="white"/>
<path d="M21.3692 17.4847C21.4282 17.6 21.5456 17.6666 21.6669 17.6666C21.7175 17.6666 21.7695 17.655 21.8179 17.6303C21.8375 17.6203 23.7996 16.6236 24.7672 16.318C24.9426 16.2623 25.0399 16.075 24.9842 15.8997C24.9289 15.7243 24.7429 15.6266 24.5659 15.682C23.5466 16.0043 21.5979 16.9943 21.5152 17.0363C21.3512 17.1197 21.2859 17.3204 21.3692 17.4847Z" fill="white"/>
<path d="M21.3692 21.4847C21.4282 21.6 21.5456 21.6666 21.6669 21.6666C21.7175 21.6666 21.7695 21.655 21.8179 21.6303C21.8375 21.6203 23.7996 20.6236 24.7672 20.318C24.9426 20.2623 25.0399 20.075 24.9842 19.8997C24.9289 19.7243 24.7429 19.6266 24.5659 19.682C23.5466 20.0043 21.5979 20.9943 21.5152 21.0363C21.3512 21.1197 21.2859 21.3204 21.3692 21.4847Z" fill="white"/>
<path d="M18.0763 16.1861C16.0179 15.7031 13.6789 16.3185 13.5806 16.3448C13.4029 16.3925 13.2973 16.5751 13.3449 16.7531C13.3849 16.9021 13.5196 17.0001 13.6666 17.0001C13.6953 17.0001 13.7243 16.9965 13.7533 16.9888C13.7756 16.9825 16.0276 16.3901 17.9243 16.8351C18.1026 16.8768 18.283 16.7658 18.325 16.5865C18.3669 16.4075 18.2556 16.2281 18.0763 16.1861Z" fill="white"/>
<path d="M18.0763 18.1862C16.0179 17.7036 13.6789 18.3186 13.5806 18.3449C13.4029 18.3926 13.2973 18.5753 13.3449 18.7532C13.3849 18.9022 13.5196 19.0002 13.6666 19.0002C13.6953 19.0002 13.7243 18.9965 13.7533 18.9889C13.7756 18.9826 16.0276 18.3902 17.9243 18.8352C18.1026 18.8769 18.283 18.7659 18.325 18.5865C18.3669 18.4076 18.2556 18.2282 18.0763 18.1862Z" fill="white"/>
<path d="M21.3692 23.4847C21.4282 23.6 21.5456 23.6666 21.6669 23.6666C21.7175 23.6666 21.7695 23.655 21.8179 23.6303C21.8375 23.6203 23.7996 22.6236 24.7672 22.318C24.9426 22.2623 25.0399 22.075 24.9842 21.8997C24.9289 21.7243 24.7429 21.6266 24.5659 21.682C23.5466 22.0043 21.5979 22.9943 21.5152 23.0363C21.3512 23.1197 21.2859 23.3204 21.3692 23.4847Z" fill="white"/>
<path d="M18.0763 20.186C16.0179 19.7034 13.6789 20.318 13.5806 20.3447C13.4029 20.3924 13.2973 20.5751 13.3449 20.753C13.3849 20.902 13.5196 21.0004 13.6666 21.0004C13.6953 21.0004 13.7243 20.9964 13.7533 20.9887C13.7756 20.9824 16.0276 20.39 17.9243 20.835C18.1026 20.8767 18.283 20.7657 18.325 20.5864C18.3669 20.4074 18.2556 20.228 18.0763 20.186Z" fill="white"/>
<path d="M18.0763 24.1859C16.0179 23.7029 13.6789 24.3182 13.5806 24.3446C13.4029 24.3922 13.2973 24.5749 13.3449 24.7529C13.3849 24.9019 13.5196 25.0002 13.6666 25.0002C13.6953 25.0002 13.7243 24.9963 13.7533 24.9886C13.7756 24.9822 16.0276 24.3899 17.9243 24.8349C18.1026 24.8762 18.283 24.7655 18.325 24.5862C18.3669 24.4072 18.2556 24.2279 18.0763 24.1859Z" fill="white"/>
<path d="M18.0763 22.186C16.0179 21.703 13.6789 22.318 13.5806 22.3446C13.4029 22.3923 13.2973 22.575 13.3449 22.7529C13.3849 22.9019 13.5196 23.0003 13.6666 23.0003C13.6953 23.0003 13.7243 22.9963 13.7533 22.9886C13.7756 22.9823 16.0276 22.3899 17.9243 22.8349C18.1026 22.8766 18.283 22.7656 18.325 22.5863C18.3669 22.4073 18.2556 22.228 18.0763 22.186Z" fill="white"/>
<path d="M39.5 20C39.5 30.7696 30.7696 39.5 20 39.5C9.23045 39.5 0.5 30.7696 0.5 20C0.5 9.23045 9.23045 0.5 20 0.5C30.7696 0.5 39.5 9.23045 39.5 20Z" stroke="white"/>
</svg>
