<svg width="40" height="40" viewBox="0 0 40 40" fill="none" xmlns="http://www.w3.org/2000/svg">
<path d="M39.5 20C39.5 30.7696 30.7696 39.5 20 39.5C9.23045 39.5 0.5 30.7696 0.5 20C0.5 9.23045 9.23045 0.5 20 0.5C30.7696 0.5 39.5 9.23045 39.5 20Z" stroke="white"/>
<mask id="mask0" mask-type="alpha" maskUnits="userSpaceOnUse" x="8" y="8" width="24" height="24">
<rect x="8" y="8" width="24" height="24" fill="#C4C4C4"/>
</mask>
<g mask="url(#mask0)">
<path fill-rule="evenodd" clip-rule="evenodd" d="M20 10C21.3802 10 22.679 10.2604 23.8965 10.7812C25.1139 11.3021 26.1751 12.015 27.0801 12.9199C27.985 13.8249 28.6979 14.8861 29.2188 16.1035C29.7396 17.321 30 18.6198 30 20C30 21.3802 29.7396 22.679 29.2188 23.8965C28.6979 25.1139 27.985 26.1751 27.0801 27.0801C26.1751 27.985 25.1139 28.6979 23.8965 29.2188C22.679 29.7396 21.3802 30 20 30C18.6198 30 17.321 29.7396 16.1035 29.2188C14.8861 28.6979 13.8249 27.985 12.9199 27.0801C12.015 26.1751 11.3021 25.1139 10.7812 23.8965C10.2604 22.679 10 21.3802 10 20C10 18.6198 10.2604 17.321 10.7812 16.1035C11.3021 14.8861 12.015 13.8249 12.9199 12.9199C13.8249 12.015 14.8861 11.3021 16.1035 10.7812C17.321 10.2604 18.6198 10 20 10ZM24.3164 15.4688C24.4336 15.4167 24.5573 15.4004 24.6875 15.4199C24.8177 15.4395 24.9284 15.4948 25.0195 15.5859C25.0977 15.6771 25.1465 15.7878 25.166 15.918C25.1855 16.0482 25.1628 16.1719 25.0977 16.2891L22.1484 22.0898C22.1224 22.1419 22.0866 22.1875 22.041 22.2266C21.9954 22.2656 21.9466 22.2982 21.8945 22.3242L15.918 24.8047C15.8789 24.8307 15.8398 24.847 15.8008 24.8535C15.7617 24.86 15.7161 24.8633 15.6641 24.8633C15.5859 24.8633 15.5111 24.847 15.4395 24.8145C15.3678 24.7819 15.306 24.7396 15.2539 24.6875C15.1628 24.5964 15.1074 24.4889 15.0879 24.3652C15.0684 24.2415 15.0846 24.1211 15.1367 24.0039L17.9492 18.3594C17.9753 18.3073 18.0111 18.2585 18.0566 18.2129C18.1022 18.1673 18.151 18.1315 18.2031 18.1055L24.3164 15.4688ZM16.9922 22.9883L20.4102 21.6602L18.6914 19.5117L16.9922 22.9883ZM23.1445 17.4023L21.4258 20.9375L19.6875 18.75L23.1445 17.4023ZM23.4082 28.0762C22.347 28.5384 21.2109 28.7695 20 28.7695C18.7891 28.7695 17.653 28.5384 16.5918 28.0762C15.5306 27.6139 14.6061 26.9857 13.8184 26.1914C13.0306 25.3971 12.4056 24.4694 11.9434 23.4082C11.4811 22.347 11.25 21.2109 11.25 20C11.25 18.7891 11.4811 17.653 11.9434 16.5918C12.4056 15.5306 13.0306 14.6061 13.8184 13.8184C14.6061 13.0306 15.5306 12.4056 16.5918 11.9434C17.653 11.4811 18.7891 11.25 20 11.25C21.2109 11.25 22.347 11.4811 23.4082 11.9434C24.4694 12.4056 25.3939 13.0306 26.1816 13.8184C26.9694 14.6061 27.5944 15.5306 28.0566 16.5918C28.5189 17.653 28.75 18.7891 28.75 20C28.75 21.2109 28.5189 22.347 28.0566 23.4082C27.5944 24.4694 26.9694 25.3971 26.1816 26.1914C25.3939 26.9857 24.4694 27.6139 23.4082 28.0762Z" fill="white"/>
</g>
</svg>
