<svg width="40" height="40" viewBox="0 0 40 40" fill="none" xmlns="http://www.w3.org/2000/svg">
<path d="M28.9655 10H11.0345C10.4632 10 10 10.4632 10 11.0345V28.9655C10 29.5368 10.4632 30 11.0345 30H28.9655C29.5368 30 30 29.5368 30 28.9655V11.0345C30 10.4632 29.5368 10 28.9655 10ZM29.3103 11.0345V19.6552H26.1104C25.9798 19.6552 25.8604 19.7289 25.802 19.8458C25.7435 19.9626 25.7562 20.1024 25.8345 20.2069C26.082 20.5472 26.2126 20.9585 26.2069 21.3793C26.2069 22.3299 25.5883 23.1034 24.8276 23.1034C24.0669 23.1034 23.4483 22.3299 23.4483 21.3793C23.4424 20.9585 23.5727 20.5474 23.82 20.2069C23.8983 20.1024 23.911 19.9626 23.8525 19.8458C23.7941 19.7289 23.6747 19.6552 23.5441 19.6552H20.3448V17.0424C20.6737 17.1747 21.0249 17.2422 21.3793 17.2414C22.7103 17.2414 23.7931 16.3135 23.7931 15.1724C23.7931 14.0314 22.7103 13.1034 21.3793 13.1034C21.0249 13.1026 20.6737 13.1701 20.3448 13.3025V10.6897H28.9655C29.1559 10.6897 29.3103 10.8441 29.3103 11.0345V11.0345ZM10.6897 11.0345C10.6897 10.8441 10.8441 10.6897 11.0345 10.6897H19.6552V13.8896C19.6552 14.0202 19.7289 14.1396 19.8458 14.198C19.9626 14.2565 20.1024 14.2438 20.2069 14.1655C20.5474 13.9182 20.9585 13.7877 21.3793 13.7931C22.3299 13.7931 23.1034 14.4117 23.1034 15.1724C23.1034 15.9331 22.3299 16.5517 21.3793 16.5517C20.9587 16.5574 20.5474 16.427 20.2069 16.18C20.1024 16.1017 19.9626 16.089 19.8458 16.1475C19.7289 16.2059 19.6552 16.3253 19.6552 16.4559V19.6552H17.0424C17.1747 19.3263 17.2422 18.9751 17.2414 18.6207C17.2414 17.29 16.3135 16.2069 15.1724 16.2069C14.0314 16.2069 13.1034 17.29 13.1034 18.6207C13.1026 18.9751 13.1701 19.3263 13.3025 19.6552H10.6897V11.0345ZM10.6897 28.9655V20.3448H13.8896C14.0202 20.3448 14.1396 20.2711 14.198 20.1542C14.2565 20.0374 14.2438 19.8976 14.1655 19.7931C13.918 19.4528 13.7874 19.0415 13.7931 18.6207C13.7931 17.6701 14.4117 16.8966 15.1724 16.8966C15.9331 16.8966 16.5517 17.6701 16.5517 18.6207C16.5576 19.0415 16.4273 19.4526 16.18 19.7931C16.1017 19.8976 16.089 20.0374 16.1475 20.1542C16.2059 20.2711 16.3253 20.3448 16.4559 20.3448H19.6552V22.9576C19.3263 22.8253 18.9751 22.7578 18.6207 22.7586C17.2897 22.7586 16.2069 23.6865 16.2069 24.8276C16.2069 25.9686 17.2897 26.8966 18.6207 26.8966C18.9751 26.8974 19.3263 26.8299 19.6552 26.6975V29.3103H11.0345C10.8441 29.3103 10.6897 29.1559 10.6897 28.9655ZM29.3103 28.9655C29.3103 29.1559 29.1559 29.3103 28.9655 29.3103H20.3448V26.1104C20.3448 25.9798 20.2711 25.8604 20.1542 25.802C20.0374 25.7435 19.8976 25.7562 19.7931 25.8345C19.4526 26.0818 19.0415 26.2123 18.6207 26.2069C17.6701 26.2069 16.8966 25.5883 16.8966 24.8276C16.8966 24.0669 17.6701 23.4483 18.6207 23.4483C19.0413 23.4426 19.4526 23.573 19.7931 23.82C19.8976 23.8983 20.0374 23.911 20.1542 23.8525C20.2711 23.7941 20.3448 23.6747 20.3448 23.5441V20.3448H22.9576C22.8253 20.6737 22.7578 21.0249 22.7586 21.3793C22.7586 22.71 23.6865 23.7931 24.8276 23.7931C25.9686 23.7931 26.8966 22.71 26.8966 21.3793C26.8974 21.0249 26.8299 20.6737 26.6975 20.3448H29.3103V28.9655Z" fill="#F39000"/>
<path d="M39.5 20C39.5 30.7696 30.7696 39.5 20 39.5C9.23045 39.5 0.5 30.7696 0.5 20C0.5 9.23045 9.23045 0.5 20 0.5C30.7696 0.5 39.5 9.23045 39.5 20Z" stroke="#F39000"/>
</svg>
