<svg width="40" height="40" viewBox="0 0 40 40" fill="none" xmlns="http://www.w3.org/2000/svg">
<path d="M39.5 20C39.5 30.7696 30.7696 39.5 20 39.5C9.23045 39.5 0.5 30.7696 0.5 20C0.5 9.23045 9.23045 0.5 20 0.5C30.7696 0.5 39.5 9.23045 39.5 20Z" stroke="white"/>
<mask id="mask0" mask-type="alpha" maskUnits="userSpaceOnUse" x="8" y="8" width="24" height="24">
<rect x="8" y="8" width="24" height="24" fill="#C4C4C4"/>
</mask>
<g mask="url(#mask0)">
<path fill-rule="evenodd" clip-rule="evenodd" d="M30.0521 22.2344C30.0651 22.2734 30.0684 22.3092 30.0618 22.3418C30.0553 22.3743 30.0456 22.4102 30.0326 22.4492C30.0326 22.4753 30.0358 22.5046 30.0423 22.5371C30.0488 22.5697 30.0521 22.6055 30.0521 22.6445C30.0521 23.2435 29.9382 23.8066 29.7103 24.334C29.4824 24.8613 29.1699 25.3236 28.7728 25.7207C28.3757 26.1178 27.9134 26.4303 27.3861 26.6582C26.8587 26.8861 26.2891 27 25.6771 27C25.0781 27 24.5117 26.8861 23.9779 26.6582C23.444 26.4303 22.9753 26.1178 22.5716 25.7207C22.168 25.3236 21.849 24.8613 21.6146 24.334C21.3802 23.8066 21.263 23.2435 21.263 22.6445C21.263 22.4492 21.2728 22.2637 21.2923 22.0879C21.3118 21.9121 21.3477 21.7396 21.3997 21.5703C21.2695 21.5182 21.0872 21.4661 20.8529 21.4141C20.6185 21.362 20.3451 21.3359 20.0326 21.3359C19.707 21.3359 19.4303 21.3652 19.2025 21.4238C18.9746 21.4824 18.7956 21.5378 18.6654 21.5898C18.7044 21.7591 18.737 21.9316 18.763 22.1074C18.7891 22.2832 18.8021 22.4622 18.8021 22.6445C18.8021 23.2435 18.6882 23.8066 18.4603 24.334C18.2324 24.8613 17.9199 25.3236 17.5228 25.7207C17.1256 26.1178 16.6634 26.4303 16.1361 26.6582C15.6087 26.8861 15.0391 27 14.4271 27C13.8281 27 13.2617 26.8861 12.7279 26.6582C12.194 26.4303 11.7253 26.1178 11.3216 25.7207C10.918 25.3236 10.599 24.8613 10.3646 24.334C10.1302 23.8066 10.013 23.2435 10.013 22.6445V22.3711C10.013 22.3451 10.0098 22.3158 10.0033 22.2832C9.99674 22.2507 10 22.2214 10.013 22.1953C10.013 22.1302 10.0651 21.7656 10.1693 21.1016C10.2734 20.4375 10.3906 19.6953 10.5208 18.875C10.651 18.0547 10.778 17.2702 10.9017 16.5215C11.0254 15.7728 11.1068 15.2813 11.1458 15.0469C11.1458 14.9948 11.1491 14.946 11.1556 14.9004C11.1621 14.8548 11.1719 14.806 11.1849 14.7539C11.237 14.2721 11.429 13.6927 11.7611 13.0156C12.0931 12.3385 12.9753 12 14.4076 12C14.5768 12 14.7233 12.0618 14.847 12.1855C14.9707 12.3092 15.0326 12.4557 15.0326 12.625C15.0326 12.7943 14.9707 12.9408 14.847 13.0645C14.7233 13.1882 14.5768 13.25 14.4076 13.25C13.5221 13.25 12.985 13.4095 12.7962 13.7285C12.6074 14.0475 12.4805 14.4414 12.4154 14.9102C12.4154 14.9622 12.4089 15.0176 12.3958 15.0762C12.3828 15.1348 12.3763 15.1901 12.3763 15.2422C12.3372 15.4635 12.2461 15.9681 12.1029 16.7559C11.9596 17.5436 11.8164 18.3737 11.6732 19.2461C12.0508 18.9466 12.474 18.709 12.9427 18.5332C13.4115 18.3574 13.9062 18.2695 14.4271 18.2695C15.2344 18.2695 15.9668 18.4681 16.6243 18.8652C17.2819 19.2624 17.806 19.7799 18.1966 20.418C18.3789 20.3398 18.623 20.265 18.929 20.1934C19.235 20.1217 19.6029 20.0859 20.0326 20.0859C20.4492 20.0859 20.8171 20.1217 21.1361 20.1934C21.4551 20.265 21.7057 20.3398 21.888 20.418C22.2786 19.7799 22.8092 19.2624 23.4798 18.8652C24.1504 18.4681 24.8828 18.2695 25.6771 18.2695C26.1719 18.2695 26.6439 18.3509 27.0931 18.5137C27.5423 18.6764 27.9492 18.8945 28.3138 19.168C28.1706 18.2956 28.0306 17.4785 27.8939 16.7168C27.7572 15.9551 27.6693 15.4635 27.6302 15.2422C27.6172 15.1901 27.6074 15.1348 27.6009 15.0762C27.5944 15.0176 27.5911 14.9622 27.5911 14.9102C27.526 14.4414 27.3991 14.0475 27.2103 13.7285C27.0215 13.4095 26.4844 13.25 25.599 13.25C25.4167 13.25 25.2669 13.1882 25.1497 13.0645C25.0326 12.9408 24.974 12.7943 24.974 12.625C24.974 12.4557 25.0326 12.3092 25.1497 12.1855C25.2669 12.0618 25.4167 12 25.599 12C27.0313 12 27.9102 12.3385 28.2357 13.0156C28.5612 13.6927 28.7565 14.2721 28.8216 14.7539C28.8346 14.806 28.8444 14.8548 28.8509 14.9004C28.8574 14.946 28.8607 14.9948 28.8607 15.0469C28.8997 15.2813 28.9844 15.776 29.1146 16.5312C29.2448 17.2865 29.3783 18.0742 29.515 18.8945C29.6517 19.7148 29.7754 20.4603 29.8861 21.1309C29.9967 21.8014 30.0521 22.1693 30.0521 22.2344ZM14.4271 25.75C15.2865 25.75 16.0221 25.4473 16.6341 24.8418C17.2461 24.2363 17.5521 23.5039 17.5521 22.6445C17.5521 21.7852 17.2461 21.0495 16.6341 20.4375C16.0221 19.8255 15.2865 19.5195 14.4271 19.5195C13.5677 19.5195 12.8255 19.8288 12.2005 20.4473C11.5755 21.0658 11.263 21.7982 11.263 22.6445C11.263 23.4779 11.5755 24.2038 12.2005 24.8223C12.8255 25.4408 13.5677 25.75 14.4271 25.75ZM27.8841 24.8418C27.2721 25.4473 26.5365 25.75 25.6771 25.75C24.8177 25.75 24.0755 25.4408 23.4505 24.8223C22.8255 24.2038 22.513 23.4779 22.513 22.6445C22.513 21.7982 22.8255 21.0658 23.4505 20.4473C24.0755 19.8288 24.8177 19.5195 25.6771 19.5195C26.4193 19.5195 27.0736 19.7539 27.64 20.2227C28.2064 20.6914 28.5677 21.2708 28.724 21.9609C28.724 22.026 28.7272 22.0879 28.7337 22.1465C28.7402 22.2051 28.7435 22.2604 28.7435 22.3125C28.7565 22.3385 28.7663 22.3646 28.7728 22.3906C28.7793 22.4167 28.7826 22.4427 28.7826 22.4688C28.7826 22.4948 28.7858 22.5208 28.7923 22.5469C28.7988 22.5729 28.8021 22.6055 28.8021 22.6445C28.8021 23.5039 28.4961 24.2363 27.8841 24.8418Z" fill="white"/>
</g>
</svg>
