<svg width="40" height="40" viewBox="0 0 40 40" fill="none" xmlns="http://www.w3.org/2000/svg">
<path d="M22.6979 16.5372V15.1592C22.6946 14.32 22.4093 13.5165 21.9046 12.9244C21.3998 12.3324 20.7166 12 20.0045 12C19.2923 12 18.6091 12.3324 18.1044 12.9244C17.5996 13.5165 17.3144 14.32 17.311 15.1592V16.5372C17.3144 17.3765 17.5996 18.18 18.1044 18.772C18.6091 19.3641 19.2923 19.6965 20.0045 19.6965C20.7166 19.6965 21.3998 19.3641 21.9046 18.772C22.4093 18.18 22.6946 17.3765 22.6979 16.5372ZM18.0207 16.5372V15.1592C18.0236 14.5414 18.2338 13.9501 18.6056 13.5144C18.9773 13.0788 19.4802 12.8342 20.0045 12.8342C20.5287 12.8342 21.0317 13.0788 21.4034 13.5144C21.7751 13.9501 21.9854 14.5414 21.9882 15.1592V16.5372C21.9854 17.155 21.7751 17.7464 21.4034 18.182C21.0317 18.6177 20.5287 18.8623 20.0045 18.8623C19.4802 18.8623 18.9773 18.6177 18.6056 18.182C18.2338 17.7464 18.0236 17.155 18.0207 16.5372V16.5372Z" fill="white"/>
<path d="M15.6632 28.4999H24.3462C24.4403 28.4999 24.5305 28.4549 24.5971 28.3749C24.6636 28.2948 24.701 28.1862 24.701 28.073V27.0931H30.6452C30.7393 27.0931 30.8295 27.0481 30.8961 26.968C30.9626 26.888 31 26.7794 31 26.6662V23.8952C30.9996 23.0821 30.742 22.2997 30.2795 21.7069C29.8169 21.1141 29.1842 20.7554 28.5097 20.7036C28.3205 20.6869 28.2232 20.831 28.1443 20.9468C27.9873 21.1776 27.7886 21.3622 27.5634 21.4865C27.3381 21.6109 27.0922 21.6718 26.8444 21.6645C26.5966 21.6572 26.3535 21.582 26.1335 21.4445C25.9136 21.3071 25.7226 21.111 25.5752 20.8713C25.5413 20.8161 25.4969 20.7716 25.4457 20.7415C25.3944 20.7113 25.3379 20.6965 25.2809 20.6982C24.82 20.7106 24.3699 20.8686 23.9757 21.1563C23.7154 20.7922 23.3971 20.4947 23.0395 20.2813C22.6819 20.0679 22.2924 19.943 21.894 19.9141C21.7106 19.9051 21.6179 20.039 21.5281 20.1702C21.3439 20.4411 21.1107 20.6577 20.8464 20.8037C20.582 20.9497 20.2934 21.0211 20.0027 21.0126C19.7119 21.004 19.4266 20.9157 19.1685 20.7544C18.9104 20.5931 18.6863 20.363 18.5133 20.0816C18.4795 20.0264 18.435 19.9818 18.3838 19.9517C18.3326 19.9216 18.2761 19.9068 18.2191 19.9086C17.4409 19.9303 16.7009 20.3186 16.1583 20.9901C16.1135 21.0453 16.071 21.1024 16.0295 21.1604C15.6631 20.892 15.2479 20.7352 14.8197 20.7034C14.6311 20.6867 14.5331 20.8309 14.4543 20.9466C14.2973 21.1774 14.0986 21.362 13.8733 21.4864C13.6481 21.6108 13.4022 21.6716 13.1544 21.6644C12.9066 21.6571 12.6635 21.5818 12.4435 21.4444C12.2236 21.3069 12.0326 21.1109 11.8852 20.8711C11.8513 20.816 11.8068 20.7716 11.7556 20.7414C11.7044 20.7113 11.648 20.6964 11.591 20.698C10.8979 20.7193 10.2391 21.0654 9.75506 21.6627C9.27104 22.2599 9.0001 23.061 9 23.8952V26.6662C9 26.7794 9.03738 26.888 9.10393 26.968C9.17048 27.0481 9.26073 27.0931 9.35484 27.0931H15.3083V28.073C15.3083 28.1862 15.3457 28.2948 15.4123 28.3749C15.4788 28.4549 15.5691 28.4999 15.6632 28.4999V28.4999ZM25.1294 21.5655C25.3482 21.8643 25.6172 22.1037 25.9186 22.2681C26.22 22.4325 26.547 22.518 26.8779 22.5191C27.2088 22.5201 27.5362 22.4366 27.8383 22.2742C28.1404 22.1117 28.4104 21.8739 28.6305 21.5766C29.0919 21.6603 29.5131 21.9403 29.8177 22.3657C30.1222 22.7911 30.2899 23.3338 30.2903 23.8952V26.2392H24.701V23.5005C24.7014 22.932 24.589 22.3716 24.3731 21.8659C24.605 21.7032 24.8626 21.6009 25.1294 21.5655V21.5655ZM18.0661 20.7754C18.3115 21.1171 18.615 21.3914 18.9561 21.5798C19.2971 21.7682 19.6679 21.8663 20.0432 21.8673C20.4185 21.8684 20.7897 21.7725 21.1315 21.586C21.4733 21.3996 21.7779 21.127 22.0246 20.7867C22.5694 20.8774 23.0687 21.202 23.4302 21.7008C23.7917 22.1995 23.9911 22.8388 23.9916 23.5005V27.6461H16.018V23.5005C16.0215 22.8229 16.2323 22.1705 16.61 21.6679C16.9878 21.1653 17.5061 20.8476 18.0661 20.7754V20.7754ZM9.70968 26.2392V23.8952C9.71268 23.32 9.89012 22.7659 10.2087 22.337C10.5272 21.9081 10.965 21.6338 11.4398 21.5658C11.6585 21.8645 11.9275 22.1038 12.2288 22.2682C12.5302 22.4325 12.8571 22.518 13.188 22.519C13.5189 22.52 13.8462 22.4365 14.1482 22.274C14.4503 22.1116 14.7203 21.8739 14.9403 21.5766C15.1846 21.6205 15.4197 21.7203 15.6328 21.8706C15.4189 22.3753 15.3077 22.9339 15.3083 23.5005V26.2392H9.70968Z" fill="white"/>
<path d="M29.2469 17.7827V16.5765C29.2469 15.8258 28.9939 15.1059 28.5435 14.5751C28.093 14.0443 27.4821 13.7461 26.8451 13.7461C26.2082 13.7461 25.5972 14.0443 25.1468 14.5751C24.6964 15.1059 24.4434 15.8258 24.4434 16.5765V17.7827C24.4434 18.5333 24.6964 19.2533 25.1468 19.7841C25.5972 20.3149 26.2082 20.6131 26.8451 20.6131C27.4821 20.6131 28.093 20.3149 28.5435 19.7841C28.9939 19.2533 29.2469 18.5333 29.2469 17.7827V17.7827ZM25.153 17.7827V16.5765C25.153 16.0476 25.3313 15.5404 25.6486 15.1665C25.966 14.7925 26.3964 14.5824 26.8451 14.5824C27.2939 14.5824 27.7243 14.7925 28.0416 15.1665C28.359 15.5404 28.5373 16.0476 28.5373 16.5765V17.7827C28.5373 18.3115 28.359 18.8187 28.0416 19.1927C27.7243 19.5666 27.2939 19.7767 26.8451 19.7767C26.3964 19.7767 25.966 19.5666 25.6486 19.1927C25.3313 18.8187 25.153 18.3115 25.153 17.7827V17.7827Z" fill="white"/>
<path d="M15.5575 17.7827V16.5765C15.5575 16.2048 15.4954 15.8367 15.3747 15.4933C15.254 15.1499 15.077 14.8379 14.854 14.5751C14.631 14.3123 14.3662 14.1038 14.0748 13.9615C13.7834 13.8193 13.4711 13.7461 13.1557 13.7461C12.8403 13.7461 12.528 13.8193 12.2366 13.9615C11.9452 14.1038 11.6804 14.3123 11.4574 14.5751C11.2343 14.8379 11.0574 15.1499 10.9367 15.4933C10.816 15.8367 10.7539 16.2048 10.7539 16.5765V17.7827C10.7539 18.1544 10.816 18.5224 10.9367 18.8658C11.0574 19.2092 11.2343 19.5212 11.4574 19.7841C11.6804 20.0469 11.9452 20.2554 12.2366 20.3976C12.528 20.5398 12.8403 20.6131 13.1557 20.6131C13.4711 20.6131 13.7834 20.5398 14.0748 20.3976C14.3662 20.2554 14.631 20.0469 14.854 19.7841C15.077 19.5212 15.254 19.2092 15.3747 18.8658C15.4954 18.5224 15.5575 18.1544 15.5575 17.7827V17.7827ZM11.4636 17.7827V16.5765C11.4636 16.0476 11.6419 15.5404 11.9592 15.1665C12.2765 14.7925 12.7069 14.5824 13.1557 14.5824C13.6045 14.5824 14.0349 14.7925 14.3522 15.1665C14.6695 15.5404 14.8478 16.0476 14.8478 16.5765V17.7827C14.8478 18.0445 14.804 18.3038 14.719 18.5458C14.634 18.7877 14.5093 19.0075 14.3522 19.1927C14.1951 19.3779 14.0085 19.5247 13.8032 19.6249C13.5979 19.7252 13.3779 19.7767 13.1557 19.7767C12.9335 19.7767 12.7134 19.7252 12.5081 19.6249C12.3029 19.5247 12.1163 19.3779 11.9592 19.1927C11.8021 19.0075 11.6774 18.7877 11.5924 18.5458C11.5074 18.3038 11.4636 18.0445 11.4636 17.7827V17.7827Z" fill="white"/>
<path d="M39.5 20C39.5 30.7696 30.7696 39.5 20 39.5C9.23045 39.5 0.5 30.7696 0.5 20C0.5 9.23045 9.23045 0.5 20 0.5C30.7696 0.5 39.5 9.23045 39.5 20Z" stroke="white"/>
</svg>
