<svg width="40" height="40" viewBox="0 0 40 40" fill="none" xmlns="http://www.w3.org/2000/svg">
<path d="M39.5 20C39.5 30.7696 30.7696 39.5 20 39.5C9.23045 39.5 0.5 30.7696 0.5 20C0.5 9.23045 9.23045 0.5 20 0.5C30.7696 0.5 39.5 9.23045 39.5 20Z" stroke="white"/>
<mask id="mask0" mask-type="alpha" maskUnits="userSpaceOnUse" x="8" y="8" width="24" height="24">
<rect x="8" y="8" width="24" height="24" fill="#C4C4C4"/>
</mask>
<g mask="url(#mask0)">
<path fill-rule="evenodd" clip-rule="evenodd" d="M10.1855 15.6641C10.2441 15.7682 10.3255 15.8464 10.4297 15.8984L19.707 20.957C19.7591 20.9701 19.8079 20.9831 19.8535 20.9961C19.8991 21.0091 19.9479 21.0156 20 21.0156C20.0521 21.0156 20.1042 21.0124 20.1562 21.0059C20.2083 20.9993 20.2539 20.9831 20.293 20.957L29.6875 15.8984C29.7786 15.8464 29.8535 15.7682 29.9121 15.6641C29.9707 15.5599 30 15.4492 30 15.332C30 15.2148 29.9707 15.1074 29.9121 15.0098C29.8535 14.9121 29.7721 14.8372 29.668 14.7852L20.3906 10.0781C20.2995 10.026 20.2051 10 20.1074 10C20.0098 10 19.9154 10.026 19.8242 10.0781L10.4492 14.7852C10.3451 14.8372 10.2604 14.9121 10.1953 15.0098C10.1302 15.1074 10.0977 15.2148 10.0977 15.332C10.0977 15.4492 10.127 15.5599 10.1855 15.6641ZM12.0703 15.3711L20.0977 11.3281L28.0273 15.3711L20 19.6875L12.0703 15.3711ZM29.5508 19.375C29.6549 19.4271 29.7396 19.5052 29.8047 19.6094C29.8698 19.7135 29.9023 19.8177 29.9023 19.9219C29.9023 20.0391 29.873 20.1497 29.8145 20.2539C29.7559 20.3581 29.6745 20.4362 29.5703 20.4883L20.1953 25.5469C20.1432 25.5729 20.0944 25.5924 20.0488 25.6055C20.0033 25.6185 19.9544 25.625 19.9023 25.625C19.8503 25.625 19.7982 25.6185 19.7461 25.6055C19.694 25.5924 19.6419 25.5729 19.5898 25.5469L10.3125 20.4883C10.2214 20.4362 10.1465 20.3581 10.0879 20.2539C10.0293 20.1497 10 20.0391 10 19.9219C10 19.8047 10.0293 19.6973 10.0879 19.5996C10.1465 19.502 10.2279 19.4271 10.332 19.375L12.3047 18.3984L13.6328 19.1211L11.9727 19.9609L19.9023 24.2773L27.9297 19.9609L26.3672 19.1602L27.6953 18.4375L29.5508 19.375ZM29.8047 23.9844C29.7396 23.8802 29.6549 23.8021 29.5508 23.75L27.793 22.8906L26.4648 23.6133L27.9297 24.3359L19.9023 28.6523L11.9727 24.3359L13.5156 23.6328L12.1875 22.9102L10.332 23.75C10.2279 23.8021 10.1465 23.877 10.0879 23.9746C10.0293 24.0723 10 24.1797 10 24.2969C10 24.4141 10.0293 24.5247 10.0879 24.6289C10.1465 24.7331 10.2214 24.8112 10.3125 24.8633L19.5898 29.9219C19.6419 29.9479 19.694 29.9674 19.7461 29.9805C19.7982 29.9935 19.8503 30 19.9023 30C19.9544 30 20.0033 29.9935 20.0488 29.9805C20.0944 29.9674 20.1432 29.9479 20.1953 29.9219L29.5703 24.8633C29.6745 24.8112 29.7559 24.7331 29.8145 24.6289C29.873 24.5247 29.9023 24.4141 29.9023 24.2969C29.9023 24.1927 29.8698 24.0885 29.8047 23.9844Z" fill="white"/>
</g>
</svg>
