<svg width="40" height="40" viewBox="0 0 40 40" fill="none" xmlns="http://www.w3.org/2000/svg">
<path d="M31 16.2587C30.9995 15.8787 30.9013 15.4932 30.6841 15.1755L28.9409 12.6375C28.6489 12.2156 28.2047 12.0008 27.7607 12C27.4965 12 27.2275 12.0771 26.9898 12.2457L25.2901 13.449C25.1113 13.5788 24.8049 13.6678 24.5089 13.6655C24.2789 13.6666 24.0567 13.6143 23.9099 13.5318L22.2455 12.6144C21.977 12.4673 21.6778 12.407 21.3768 12.4064C20.9446 12.4087 20.5069 12.5296 20.1551 12.807L19.9609 12.962C19.8057 12.8738 19.5684 12.7395 19.2997 12.5874C18.9774 12.4076 18.5985 12.3351 18.2157 12.3337C17.87 12.3348 17.5243 12.3954 17.2207 12.5413L16.0871 13.0918C15.9025 13.1828 15.6091 13.2423 15.3176 13.2408C15.0261 13.2422 14.7331 13.1828 14.5486 13.0918L13.4139 12.541C13.2069 12.4406 12.9857 12.3977 12.7664 12.3974C12.5139 12.3977 12.2629 12.4543 12.0296 12.5618C11.7967 12.6699 11.5804 12.8295 11.4082 13.0485L9.34225 15.6813C9.11327 15.9723 8.99953 16.3387 9 16.6994C8.99953 17.1295 9.16126 17.561 9.47322 17.8634L11.4004 19.7343L10.4862 20.8195C10.2341 21.1188 10.1087 21.5068 10.1087 21.8905C10.1082 22.2987 10.2507 22.7109 10.5329 23.0144L10.7184 23.2149C10.8931 23.4036 11.1031 23.5235 11.3228 23.5875C11.2126 23.8182 11.1524 24.0712 11.1529 24.3246C11.1524 24.7331 11.2949 25.145 11.5766 25.4488L11.5761 25.4485L11.7621 25.6499C12.0269 25.9355 12.3701 26.0778 12.7083 26.0775C12.89 26.0778 13.072 26.0362 13.243 25.9549C13.3031 26.232 13.427 26.4954 13.622 26.7059L13.808 26.9073C14.0728 27.1928 14.4155 27.3351 14.7542 27.3348C15.019 27.3351 15.285 27.2463 15.5139 27.074C15.5809 27.3192 15.6957 27.5516 15.8704 27.7405L16.0564 27.9419C16.3206 28.2275 16.6639 28.3697 17.0021 28.3694C17.3623 28.3697 17.7261 28.2087 17.9948 27.8895L18.8028 26.9295L19.9005 28.0855C20.1632 28.3628 20.5005 28.5008 20.8334 28.5C21.1992 28.5009 21.5681 28.3341 21.8374 28.0062L22.0126 27.7925C22.1639 27.6077 22.2626 27.3889 22.3199 27.1605L22.7451 27.6071C23.0083 27.8833 23.3451 28.0207 23.6776 28.0204C24.0438 28.0207 24.4138 27.854 24.6833 27.5257L24.8575 27.3123C25.0588 27.0677 25.172 26.7647 25.207 26.4553C25.3192 26.488 25.433 26.5102 25.5477 26.5102C25.9139 26.5102 26.2829 26.3437 26.5526 26.0158L26.7274 25.8024C26.9716 25.5046 27.0932 25.1225 27.0926 24.7459C27.0926 24.629 27.0779 24.5127 27.0551 24.3977C27.3589 24.3519 27.6534 24.1978 27.8773 23.9241L28.0526 23.7105C28.2968 23.4126 28.4178 23.0306 28.4178 22.6537C28.4183 22.2389 28.2713 21.8204 27.9813 21.5155L27.6536 21.1711L30.6115 17.4497C30.877 17.1147 30.9995 16.6834 31 16.2587ZM11.6647 22.7957C11.508 22.7952 11.3547 22.7314 11.2349 22.6023L11.0492 22.4018C10.9207 22.2635 10.8572 22.0795 10.8567 21.8906C10.8572 21.7134 10.9129 21.5404 11.0277 21.4041L12.9001 19.1807C13.0221 19.0359 13.1849 18.9634 13.3518 18.9631C13.5081 18.9634 13.6608 19.0274 13.7816 19.1569L13.9665 19.3577C13.9665 19.3577 14.1581 19.6799 14.1585 19.8691C14.1581 20.0108 14.1205 20.1487 14.0478 20.2682C14.0416 20.2753 12.0269 22.6646 12.0269 22.6646C11.9199 22.7507 11.7934 22.7951 11.6647 22.7957ZM13.1601 25.0134C13.0383 25.1577 12.8758 25.2299 12.7088 25.2305C12.5521 25.2302 12.3993 25.1662 12.2791 25.037L12.0931 24.8359L12.0926 24.8356C11.9651 24.6979 11.9011 24.5133 11.9011 24.3244C11.9011 24.1472 11.9574 23.9742 12.0716 23.8379C12.0716 23.8379 14.5675 20.8815 14.5885 20.853C14.7078 20.7225 14.8615 20.655 15.0202 20.6547C15.1769 20.655 15.3297 20.7188 15.4499 20.8482L15.6359 21.0496C15.7639 21.1873 15.8274 21.3716 15.8279 21.5608C15.8274 21.738 15.7712 21.9112 15.6569 22.0475L13.1601 25.0134ZM15.2057 26.2704C15.0842 26.415 14.9217 26.4873 14.7547 26.4878C14.598 26.4875 14.4452 26.4235 14.325 26.2941L14.1385 26.093C14.0105 25.955 13.9465 25.7707 13.9465 25.5818C13.9465 25.4236 13.9937 25.2703 14.0842 25.1425L15.8224 23.0782C15.9396 22.9578 16.0866 22.8944 16.2389 22.8944C16.3956 22.8947 16.5484 22.9584 16.6686 23.0878L16.8551 23.2892C16.9826 23.4269 17.0466 23.6113 17.0471 23.8001C17.0466 23.9777 16.9899 24.1509 16.8761 24.2868L15.2057 26.2704ZM18.5083 26.0525L17.4536 27.3051C17.3321 27.4496 17.1694 27.5219 17.0024 27.5224C16.8457 27.5222 16.6929 27.4581 16.5727 27.3287L16.3867 27.1276C16.2592 26.9899 16.1952 26.8053 16.1947 26.6164C16.1952 26.4388 16.2514 26.2656 16.3657 26.1299L17.4199 24.8774C17.5419 24.7329 17.7047 24.6603 17.8717 24.6601C18.0279 24.6603 18.1812 24.7241 18.3014 24.8538L18.4879 25.0549C18.6154 25.1926 18.6789 25.3769 18.6794 25.5658C18.6788 25.7433 18.6226 25.9165 18.5083 26.0525ZM27.6709 22.6548C27.6707 22.8288 27.6159 22.9992 27.5049 23.1345L27.3302 23.3479C27.2082 23.4964 27.0427 23.5715 26.8732 23.5718C26.7195 23.5715 26.5689 23.5101 26.4495 23.3844L23.5046 20.2854L22.9954 20.9058L26.1475 24.2287C26.2788 24.3669 26.3447 24.5547 26.3457 24.7464C26.3447 24.9211 26.2905 25.0912 26.1797 25.2266L26.0055 25.44C25.8835 25.5885 25.718 25.6633 25.5485 25.6639C25.3948 25.6633 25.2438 25.6016 25.1253 25.4767L22.1796 22.3777L21.6709 22.9982L24.2851 25.749C24.411 25.8864 24.4756 26.0693 24.4756 26.257C24.4756 26.4311 24.4213 26.6015 24.3106 26.7366L24.1358 26.95C24.0143 27.0985 23.8483 27.1736 23.6784 27.1741C23.5241 27.1736 23.3736 27.1118 23.2547 26.987L20.6458 24.2461H20.6453L20.6448 24.2456L20.1371 24.8671L20.1376 24.8677L20.1474 24.8782L21.4541 26.2505C21.5698 26.3858 21.6298 26.5594 21.6303 26.7389C21.6298 26.9121 21.576 27.0816 21.4653 27.2168L21.2905 27.4304C21.1685 27.5789 21.0035 27.6534 20.8345 27.654C20.6808 27.6535 20.5303 27.592 20.4113 27.4666L19.2736 26.2679C19.3726 26.0469 19.4279 25.807 19.4279 25.5664C19.4283 25.1581 19.2859 24.7465 19.0042 24.4425L18.8176 24.2411C18.5534 23.9557 18.2107 23.8132 17.8724 23.8138C17.8462 23.8138 17.8197 23.8206 17.794 23.8223C17.794 23.8153 17.7954 23.8078 17.7954 23.8007C17.7959 23.3925 17.3717 22.6763 17.3717 22.6763L17.1857 22.4754C16.988 22.2621 16.7467 22.129 16.4958 22.0755C16.5475 21.9088 16.5768 21.7353 16.5768 21.5615C16.5768 21.1532 16.4348 20.7413 16.1531 20.4376L15.967 20.2362C15.7023 19.9506 15.3596 19.808 15.0213 19.8083C14.9819 19.8083 14.9429 19.8174 14.9036 19.8214C14.8929 19.4294 14.7541 19.0378 14.4841 18.7459V18.7456L14.2986 18.5451C14.0339 18.2592 13.6912 18.1167 13.353 18.117C12.9922 18.1167 12.629 18.2777 12.3603 18.5969L11.9183 19.1217L9.9604 17.2215C9.81967 17.0844 9.74942 16.8949 9.7489 16.7003C9.74938 16.5373 9.79815 16.3777 9.90213 16.2452L11.968 13.6125C12.05 13.5078 12.1713 13.4131 12.3133 13.3473C12.4553 13.2816 12.6165 13.2455 12.7672 13.2458C12.8985 13.2458 13.0217 13.2728 13.1202 13.3212L14.2544 13.8719C14.5742 14.0252 14.9454 14.0881 15.3184 14.0895C15.6919 14.088 16.0626 14.0252 16.3824 13.8719L17.5161 13.3214C17.6909 13.2347 17.9546 13.1809 18.2168 13.182C18.5068 13.18 18.7973 13.2483 18.9657 13.3462C19.0727 13.4067 19.1742 13.4642 19.2685 13.518L18.1123 14.4428C17.7407 14.7401 17.5405 15.2129 17.541 15.6899C17.5406 16.0057 17.6285 16.3271 17.8075 16.5999L17.807 16.5993L17.9598 16.8328C18.2498 17.2715 18.702 17.4971 19.1539 17.4982C19.4092 17.4982 19.6692 17.4248 19.9009 17.2666L20.5924 16.7941C20.7334 16.696 20.9463 16.634 21.1666 16.6351C21.4253 16.6334 21.6861 16.7205 21.8428 16.8516L23.7557 18.4121C24.1815 18.7592 24.8749 19.4029 25.2592 19.808L27.4733 22.1375C27.6044 22.2759 27.6704 22.4628 27.6709 22.6548ZM30.0563 16.8834L27.1067 20.5948L25.7675 19.1861C25.348 18.7455 24.6563 18.1029 24.1923 17.7237L22.2799 16.1631C21.9557 15.9017 21.5587 15.7888 21.1662 15.7871C20.8322 15.7882 20.4957 15.871 20.2053 16.0678L19.5143 16.5404C19.4083 16.6129 19.2834 16.6499 19.1536 16.6502C18.9215 16.6511 18.6893 16.5278 18.5599 16.3273L18.4076 16.094L18.4071 16.0935C18.3261 15.9692 18.2884 15.8298 18.2878 15.6887C18.2888 15.4753 18.3753 15.2682 18.5428 15.1337L20.5873 13.4991C20.764 13.3535 21.0785 13.2514 21.3772 13.2539C21.5847 13.2528 21.7829 13.3003 21.9187 13.3765L23.5831 14.2939C23.8668 14.449 24.1871 14.5124 24.5093 14.5133C24.9232 14.511 25.3417 14.4086 25.6865 14.1676L27.3867 12.9641C27.4952 12.887 27.6254 12.8472 27.7612 12.8472C27.9907 12.8467 28.2207 12.965 28.3509 13.1581L30.094 15.6961C30.1945 15.8415 30.2528 16.0466 30.2528 16.2591C30.2531 16.4968 30.1793 16.7307 30.0563 16.8834Z" fill="#F39000"/>
<path d="M39.5 20C39.5 30.7696 30.7696 39.5 20 39.5C9.23045 39.5 0.5 30.7696 0.5 20C0.5 9.23045 9.23045 0.5 20 0.5C30.7696 0.5 39.5 9.23045 39.5 20Z" stroke="#F39000"/>
</svg>
